<svg width="37" height="40" viewBox="0 0 37 40" fill="none" xmlns="http://www.w3.org/2000/svg">
<path d="M13.9999 32.1667C5.66659 34.6667 5.66659 28.0001 2.33325 27.1667M25.6666 37.1667V30.7167C25.7291 29.922 25.6217 29.1231 25.3516 28.373C25.0815 27.623 24.6548 26.9391 24.0999 26.3667C29.3333 25.7834 34.8333 23.8001 34.8333 14.7001C34.8328 12.3731 33.9377 10.1354 32.3333 8.45006C33.093 6.41424 33.0393 4.16397 32.1833 2.16673C32.1833 2.16673 30.2166 1.58339 25.6666 4.63339C21.8466 3.59809 17.8199 3.59809 13.9999 4.63339C9.44992 1.58339 7.48325 2.16673 7.48325 2.16673C6.62721 4.16397 6.57349 6.41424 7.33325 8.45006C5.7168 10.1479 4.82079 12.4058 4.83325 14.7501C4.83325 23.7834 10.3333 25.7667 15.5666 26.4167C15.0182 26.9833 14.5954 27.6591 14.3254 28.3999C14.0555 29.1408 13.9446 29.9302 13.9999 30.7167V37.1667" stroke="#6F7806" stroke-width="4" stroke-linecap="round" stroke-linejoin="round"/>
</svg>
