<svg width="38" height="37" viewBox="0 0 38 37" fill="none" xmlns="http://www.w3.org/2000/svg">
<path d="M25.5001 12.8333C28.1522 12.8333 30.6958 13.8868 32.5712 15.7622C34.4465 17.6375 35.5001 20.1811 35.5001 22.8333V34.4999H28.8334V22.8333C28.8334 21.9492 28.4822 21.1014 27.8571 20.4762C27.232 19.8511 26.3841 19.4999 25.5001 19.4999C24.616 19.4999 23.7682 19.8511 23.1431 20.4762C22.5179 21.1014 22.1667 21.9492 22.1667 22.8333V34.4999H15.5001V22.8333C15.5001 20.1811 16.5537 17.6375 18.429 15.7622C20.3044 13.8868 22.8479 12.8333 25.5001 12.8333Z" stroke="#6F7806" stroke-width="4" stroke-linecap="round" stroke-linejoin="round"/>
<path d="M8.83342 14.4999H2.16675V34.4999H8.83342V14.4999Z" stroke="#6F7806" stroke-width="4" stroke-linecap="round" stroke-linejoin="round"/>
<path d="M5.50008 9.49992C7.34103 9.49992 8.83342 8.00753 8.83342 6.16659C8.83342 4.32564 7.34103 2.83325 5.50008 2.83325C3.65913 2.83325 2.16675 4.32564 2.16675 6.16659C2.16675 8.00753 3.65913 9.49992 5.50008 9.49992Z" stroke="#6F7806" stroke-width="4" stroke-linecap="round" stroke-linejoin="round"/>
</svg>
