<svg width="41" height="40" viewBox="0 0 41 40" fill="none" xmlns="http://www.w3.org/2000/svg">
<path d="M3.34555 0.3125L6.48774 35.5884L20.5871 39.5197L34.7259 35.5741L37.8705 0.3125H3.34555ZM31.3427 8.39437L30.2968 20.1459L30.2999 20.2094L30.2955 20.3553V20.3541L29.5524 28.5709L29.4706 29.3009L20.608 31.7522V31.7525L20.6012 31.7584L11.754 29.2934L11.1549 22.5H15.4934L15.8012 25.9544L20.6093 27.2575L20.608 27.26V27.2594L25.434 25.9378L25.944 20.3125H15.8555L15.769 19.3616L15.5718 17.1337L15.4684 15.9375H26.3274L26.7224 11.5625H10.1831L10.0965 10.6122L9.89961 8.38375L9.79586 7.1875H31.4462L31.3427 8.39437Z"/>
</svg>
