<svg width="41" height="41" viewBox="0 0 41 41" fill="none" xmlns="http://www.w3.org/2000/svg">
<path d="M14.7188 40.3125C18.4375 40.3125 21.4375 37.3125 21.4375 33.5938V26.875H14.7188C11 26.875 8 29.875 8 33.5938C8 37.3125 11 40.3125 14.7188 40.3125ZM8 20.1563C8 16.4375 11 13.4375 14.7188 13.4375H21.4375V26.875H14.7188C11 26.875 8 23.875 8 20.1563ZM8 6.71877C8 3.00002 11 1.52588e-05 14.7188 1.52588e-05H21.4375V13.4375H14.7188C11 13.4375 8 10.4375 8 6.71877ZM21.4375 1.52588e-05H28.1562C31.875 1.52588e-05 34.875 3.00002 34.875 6.71877C34.875 10.4375 31.875 13.4375 28.1562 13.4375H21.4375V1.52588e-05ZM34.875 20.1563C34.875 23.875 31.875 26.875 28.1562 26.875C24.4375 26.875 21.4375 23.875 21.4375 20.1563C21.4375 16.4375 24.4375 13.4375 28.1562 13.4375C31.875 13.4375 34.875 16.4375 34.875 20.1563Z"/>
</svg>
