<svg width="41" height="40" viewBox="0 0 41 40" fill="none" xmlns="http://www.w3.org/2000/svg">
<path d="M39.8165 18.2431L22.5925 1.02001C21.6012 0.028139 19.9925 0.028139 18.9997 1.02001L15.4237 4.59689L19.9606 9.13377C21.0153 8.77783 22.224 9.01658 23.0643 9.85689C23.4648 10.2577 23.7444 10.7631 23.8711 11.3154C23.9978 11.8676 23.9666 12.4444 23.7809 12.9797L28.1534 17.3528C29.2112 16.9881 30.4322 17.2238 31.2765 18.07C32.4578 19.2503 32.4578 21.1638 31.2765 22.3447C30.9958 22.6256 30.6625 22.8483 30.2957 23.0003C29.9288 23.1523 29.5356 23.2306 29.1386 23.2306C28.7415 23.2306 28.3483 23.1523 27.9814 23.0003C27.6146 22.8483 27.2813 22.6256 27.0006 22.3447C26.5788 21.9227 26.2913 21.3854 26.1743 20.8003C26.0572 20.2153 26.1159 19.6087 26.3428 19.0569L22.2653 14.9791L22.2647 25.7106C22.5605 25.8563 22.8306 26.0493 23.0643 26.2819C24.2453 27.4622 24.2453 29.375 23.0643 30.5578C21.8834 31.7381 19.9693 31.7381 18.7897 30.5578C17.609 29.3753 17.5122 27.4625 18.6925 26.2819C18.9843 25.9903 19.2722 25.77 19.5847 25.6225V14.7916C19.2722 14.6441 18.9847 14.4253 18.6922 14.1319C17.7981 13.2381 17.6309 11.9256 18.0897 10.8269L13.6418 6.35408L1.84371 18.1635C0.851527 19.1563 0.857777 20.765 1.84996 21.7572L19.0768 38.9803C20.0684 39.9722 21.6784 39.9722 22.6715 38.9803L39.8153 21.8372C40.8075 20.8447 40.8084 19.235 39.8165 18.2431Z"/>
</svg>
