<svg width="41" height="40" viewBox="0 0 41 40" fill="none" xmlns="http://www.w3.org/2000/svg">
<path d="M15.3803 30.6625C9.38283 32.3381 19.0294 35.7997 26.6663 32.5278C25.4153 32.0416 24.5181 31.4806 24.5181 31.4806C21.1128 32.1244 19.5331 32.175 16.4419 31.8219C13.8906 31.5297 15.3803 30.6625 15.3803 30.6625ZM25.7519 27.3938C21.2381 28.2622 18.631 28.2344 15.3288 27.8938C12.7753 27.6297 14.4469 26.3922 14.4469 26.3922C7.84158 28.5847 18.1241 31.0725 27.356 28.3722C26.3747 28.0266 25.7519 27.3938 25.7519 27.3938ZM29.2891 8.46407C29.2894 8.46407 15.9356 11.7981 22.3131 19.1475C24.1956 21.3147 21.8194 23.2631 21.8194 23.2631C21.8194 23.2631 26.5972 20.7972 24.4035 17.7078C22.3538 14.8281 20.7825 13.3975 29.2891 8.46407ZM32.4135 33.8216C32.4135 33.8216 33.5163 34.7309 31.1985 35.4338C26.7916 36.7688 12.8528 37.1713 8.98127 35.4872C7.59064 34.8816 10.1997 34.0419 11.0206 33.8647C11.8766 33.6794 12.3653 33.7131 12.3653 33.7131C10.8178 32.6234 2.36127 35.8538 8.07096 36.7803C23.64 39.3041 36.4513 35.6438 32.4135 33.8216ZM27.0625 24.3425C27.811 23.8319 28.8447 23.3884 28.8447 23.3884C28.8447 23.3884 25.8997 23.915 22.9656 24.1616C19.3738 24.4628 15.521 24.5222 13.5869 24.2634C9.00814 23.6513 16.0972 21.9672 16.0972 21.9672C16.0972 21.9672 13.3435 21.7809 9.95846 23.4184C5.95471 25.3544 19.8619 26.2369 27.0625 24.3425ZM28.8153 29.0753C28.7816 29.1659 28.6691 29.2678 28.6691 29.2678C38.4419 26.6988 34.8488 20.2119 30.176 21.8538C29.766 21.9988 29.551 22.3359 29.551 22.3359C29.551 22.3359 29.81 22.2316 30.3878 22.1109C32.75 21.6188 36.1344 25.2731 28.8153 29.0753ZM20.5566 21.8966C19.1147 18.6375 14.2253 15.7863 20.5588 10.7844C28.456 4.55094 24.4038 0.495941 24.4038 0.495941C26.0381 6.93594 18.6378 8.88125 15.9666 12.8919C14.1475 15.6247 16.8594 18.5613 20.5566 21.8966ZM29.0797 38.0678C23.0838 39.1966 15.6878 39.065 11.3025 38.3409C11.3025 38.3409 12.2006 39.0847 16.8169 39.3819C23.8406 39.8309 34.6294 39.1319 34.8844 35.8081C34.8847 35.8081 34.3938 37.0681 29.0797 38.0678Z" />
</svg>
