<svg width="41" height="40" viewBox="0 0 41 40" fill="none" xmlns="http://www.w3.org/2000/svg">
<path d="M1.23367 0.3125V39.375H40.2962V0.3125H1.23367ZM21.8959 33.5978C21.3193 34.7694 20.2187 35.5391 18.9434 35.9106C16.9837 36.3606 15.1093 36.1041 13.7149 35.2672C12.7818 34.6947 12.053 33.8134 11.5584 32.7981L14.5334 30.9762C14.5593 30.9872 14.6374 31.1284 14.7418 31.3109C15.1212 31.9466 15.4484 32.3966 16.0915 32.7125C16.7234 32.9281 18.1105 33.0659 18.6462 31.9541C18.9734 31.3884 18.8693 29.5703 18.8693 27.5588C18.869 24.3978 18.8837 21.25 18.8837 18.125H22.5427C22.5427 21.5625 22.5615 24.8181 22.5427 28.1725C22.5505 30.2288 22.729 32.0619 21.8959 33.5978ZM37.0752 32.5641C35.8034 36.9147 28.7121 37.0559 25.8784 34.1816C25.2796 33.505 24.9043 33.1516 24.5471 32.3706C26.053 31.5044 26.053 31.5044 27.5184 30.6566C28.3143 31.88 29.0502 32.5528 30.3743 32.8281C32.1705 33.0475 33.9777 32.4303 33.5724 30.5225C33.1559 28.9644 29.8943 28.5853 27.6746 26.9191C25.4212 25.4056 24.893 21.7281 26.7449 19.6269C27.3621 18.8497 28.4146 18.2697 29.519 17.9909L30.6715 17.8419C32.8843 17.7972 34.2674 18.3816 35.2827 19.5153C35.5652 19.8016 35.7959 20.1103 36.2271 20.7794C35.0484 21.5306 35.0521 21.5234 33.3637 22.6166C33.003 21.8397 32.4046 21.3522 31.7721 21.1403C30.7902 20.8428 29.5521 21.1663 29.2952 22.2038C29.2062 22.5234 29.2246 22.8209 29.3662 23.3491C29.764 24.2563 31.099 24.6506 32.2965 25.2009C35.7437 26.5991 36.9077 28.0981 37.194 29.8825C37.4696 31.4188 37.1274 32.4153 37.0752 32.5641Z"/>
</svg>
