<svg width="51" height="51" viewBox="0 0 51 51" fill="none" xmlns="http://www.w3.org/2000/svg">
<path d="M25.1506 5.11767C23.5013 5.12549 21.9271 5.26572 20.5412 5.51103C16.4591 6.23213 15.7185 7.7415 15.7185 10.5255V14.2017H25.3642V15.427H12.0982C9.29509 15.427 6.8404 17.1118 6.07243 20.3181C5.18649 23.9919 5.14743 26.2849 6.07243 30.1212C6.75798 32.977 8.39548 35.0114 11.199 35.0114H14.5158V30.6044C14.5158 27.4204 17.2701 24.6122 20.5416 24.6122H30.1763C32.8584 24.6122 34.999 22.4036 34.999 19.7106V10.5259C34.999 7.91142 32.7935 5.94775 30.1763 5.51142C28.5185 5.23564 26.7994 5.11025 25.1506 5.11767ZM19.9341 8.07431C20.9302 8.07431 21.7443 8.90127 21.7443 9.91845C21.7443 10.9313 20.9306 11.7505 19.9341 11.7505C18.9341 11.7505 18.1244 10.9313 18.1244 9.91845C18.124 8.90127 18.9341 8.07431 19.9341 8.07431Z"/>
<path d="M36.2017 15.427V19.7106C36.2017 23.031 33.3861 25.8259 30.1759 25.8259H20.5412C17.9021 25.8259 15.7185 28.0849 15.7185 30.7278V39.9134C15.7185 42.5271 17.9912 44.0649 20.5412 44.8146C23.5943 45.7118 26.5224 45.8743 30.1759 44.8146C32.6041 44.111 34.9986 42.6962 34.9986 39.9134V36.2368H25.3642V35.011H39.822C42.6251 35.011 43.6705 33.056 44.6455 30.1208C45.6525 27.0993 45.6091 24.1935 44.6455 20.3177C43.9525 17.5267 42.6294 15.4267 39.822 15.4267H36.2017V15.427ZM30.7826 38.6876C31.783 38.6876 32.5927 39.5067 32.5927 40.5204C32.5927 41.5368 31.7826 42.3638 30.7826 42.3638C29.7865 42.3638 28.9728 41.5368 28.9728 40.5204C28.9728 39.5067 29.7865 38.6876 30.7826 38.6876Z"/>
</svg>
