<svg width="41" height="40" viewBox="0 0 41 40" fill="none" xmlns="http://www.w3.org/2000/svg">
<path d="M20.5012 8.00064C15.1678 8.00064 11.8356 10.6663 10.5012 15.9997C12.5006 13.3338 14.8347 12.3341 17.5006 13.0006C19.0228 13.38 20.1106 14.4838 21.3153 15.7069C23.2759 17.6966 25.5453 20 30.5012 20C35.8343 20 39.1668 17.3341 40.5012 11.9994C38.5015 14.6669 36.1678 15.6666 33.5015 15C31.9797 14.6203 30.8931 13.5169 29.6868 12.2938C27.7275 10.3041 25.4587 8.00064 20.5012 8.00064ZM10.5012 20C5.1681 20 1.8356 22.666 0.501221 28.0006C2.5006 25.3331 4.83435 24.3335 7.5006 25C9.02278 25.3797 10.1106 26.4831 11.3153 27.7063C13.2759 29.696 15.5453 31.9994 20.5012 31.9994C25.8343 31.9994 29.1668 29.3338 30.5012 24.0003C28.5015 26.6663 26.1678 27.666 23.5015 26.9994C21.9797 26.62 20.8931 25.5163 19.6868 24.2931C17.7275 22.3035 15.4587 20 10.5012 20Z"/>
</svg>
