<svg width="41" height="40" viewBox="0 0 41 40" fill="none" xmlns="http://www.w3.org/2000/svg">
<path d="M1.125 19.9719V39.5031H40.1875V0.440639H1.125V19.9719ZM32.6031 18.4094C33.5387 18.6265 34.3891 19.1158 35.0469 19.8156C35.409 20.1927 35.7238 20.6124 35.9844 21.0656C35.9844 21.1156 34.2969 22.2563 33.2687 22.8938C33.2313 22.9188 33.0813 22.7563 32.9156 22.5094C32.7279 22.1855 32.4613 21.9145 32.1405 21.7216C31.8197 21.5287 31.4553 21.4202 31.0812 21.4063C29.8969 21.325 29.1344 21.9469 29.1406 22.9688C29.1308 23.2232 29.1891 23.4756 29.3094 23.7C29.5688 24.2406 30.0531 24.5625 31.5719 25.2188C34.3688 26.4219 35.5656 27.2156 36.3094 28.3438C37.1406 29.5938 37.325 31.6125 36.7625 33.1063C36.1375 34.7313 34.6063 35.8344 32.4406 36.2C31.4515 36.3133 30.4521 36.3028 29.4656 36.1688C27.9601 35.9245 26.5712 35.2077 25.5 34.1219C25.1406 33.725 24.4406 32.6906 24.4844 32.6156C24.5985 32.531 24.7186 32.4547 24.8438 32.3875L26.2812 31.5625L27.4031 30.9125L27.6375 31.2594C28.033 31.8252 28.5364 32.3073 29.1188 32.6781C30.3688 33.3344 32.075 33.2438 32.9187 32.4844C33.202 32.2061 33.3788 31.8373 33.4182 31.4422C33.4576 31.0471 33.3571 30.6506 33.1344 30.3219C32.8219 29.8875 32.1969 29.5219 30.45 28.7594C28.4344 27.8906 27.5656 27.3531 26.7719 26.4969C26.2764 25.9319 25.9105 25.2652 25.7 24.5438C25.543 23.7195 25.5198 22.8754 25.6312 22.0438C26.0469 20.0969 27.5062 18.7375 29.6375 18.3344C30.6245 18.2123 31.6243 18.2397 32.6031 18.4156V18.4094ZM23.4344 20.0469V21.6469H18.3625V36.0938H14.7656V21.6438H9.68125V20.0813C9.6676 19.5434 9.68221 19.0051 9.725 18.4688C9.74375 18.4438 12.85 18.4313 16.6 18.4375H23.4156L23.4344 20.0469Z"/>
</svg>
